Coordinates
version=1
nRows=17
nColumns=36
inDegrees=yes

Units are S.I. units (second, meters, Newtons, ...)
If the header above contains a line with 'inDegrees', this indicates whether rotational values are in degrees (yes) or radians (no).

endheader
time	pelvis_tilt	pelvis_list	pelvis_rotation	pelvis_tx	pelvis_ty	pelvis_tz	hip_flexion_r	hip_adduction_r	hip_rotation_r	knee_angle_r	knee_angle_r_beta	ankle_angle_r	subtalar_angle_r	mtp_angle_r	hip_flexion_l	hip_adduction_l	hip_rotation_l	knee_angle_l	knee_angle_l_beta	ankle_angle_l	subtalar_angle_l	mtp_angle_l	lumbar_extension	lumbar_bending	lumbar_rotation	arm_flex_r	arm_add_r	arm_rot_r	elbow_flex_r	pro_sup_r	arm_flex_l	arm_add_l	arm_rot_l	elbow_flex_l	pro_sup_l
      0.00000000	      1.43735037	     -1.80886691	    178.53447791	      0.56048130	      0.84418050	      0.75614145	     23.75278946	     -8.28120624	     -1.44664139	     76.53163864	      1.33572908	    -11.37222805	    -17.94497249	     -8.50567460	     10.70896590	      4.63829691	      2.92851405	     11.29235478	      0.19708877	     -2.52872193	     -8.61389995	     -8.50567460	     -7.71179198	     -2.06778052	      3.26441753	      8.14840694	    -13.84825390	     -7.07048800	     26.32771755	     93.48948809	      8.19888091	     -8.65771526	     -4.04981834	     18.08961397	     89.55761203
      0.01666670	      2.05398721	     -0.98092651	    177.69581338	      0.56178832	      0.84628498	      0.75781449	     27.36344970	     -6.84586391	     -0.62055409	     75.19479058	      1.31239668	    -11.64138883	    -17.66170079	     -8.49330322	      9.67816445	      3.58216731	      1.26663585	      8.94984939	      0.15620434	     -5.93015877	     -7.73580278	     -8.49330322	     -7.22028360	     -0.66384387	      2.94324929	      9.15389009	    -14.29667700	     -6.92389681	     26.45955817	     93.37363547	      8.80114791	     -8.44578188	     -4.05246161	     17.88170742	     89.55812190
      0.03333330	      2.62524999	     -0.30910062	    177.82830751	      0.56421668	      0.84501319	      0.75895035	     30.44229746	     -6.21842747	     -0.39945135	     72.84205558	      1.27133370	    -11.06648558	    -16.75678142	     -8.48213498	      9.14015455	      2.92470341	      0.44247533	      8.05596414	      0.14060310	     -7.81438052	     -7.20023014	     -8.48213498	     -6.68679304	      0.31976724	      2.34068840	      8.93944021	    -14.14626610	     -6.65504654	     26.30159312	     93.20090444	      9.71922351	     -8.29051590	     -4.02514810	     17.88759991	     89.49264382
      0.05000000	      4.28904238	     -0.68601400	    178.92498477	      0.56700702	      0.84387146	      0.76052354	     34.05511969	     -6.93448530	     -0.58900534	     69.73250309	      1.21706177	     -8.96614243	    -14.52700091	     -8.37106316	     10.80916660	      3.65789755	      0.89453756	      9.84236791	      0.17178173	     -7.20638643	     -7.01295631	     -8.37106316	     -4.55354004	     -0.03214383	      0.26196897	      8.26838504	    -13.06666702	     -5.03240566	     23.42014983	     92.76475487	     10.84121837	     -8.63519986	     -3.54697037	     16.87068717	     90.48357255
      0.06666670	      5.33243860	     -1.23971761	    180.18715029	      0.56972711	      0.84479322	      0.76218304	     36.15913984	     -8.15080942	     -1.10645837	     65.05837493	      1.13548285	     -7.91980704	    -13.11602901	     -8.30580728	     11.85441128	      4.58588344	      1.32466496	     12.42322772	      0.21682623	     -5.68708237	     -6.52602323	     -8.30580728	     -3.50958710	     -0.67687463	     -2.54876007	      7.12744490	    -11.68151756	     -4.89555109	     21.20660774	     91.94065062	     11.78034278	     -9.40427741	     -3.40608480	     16.78624761	     90.49841967
      0.08333330	      6.43034955	     -1.94626002	    181.12686528	      0.57050164	      0.84571934	      0.76263059	     37.86160877	     -9.44161617	     -1.64492158	     59.50869547	      1.03862267	     -7.52197509	    -12.73551876	     -8.29431054	     12.76903206	      5.59153682	      1.36871999	     15.00705297	      0.26192249	     -3.32307811	     -6.16844854	     -8.29431054	     -2.32886859	     -1.66648854	     -4.85225301	      5.68374337	    -10.41136078	     -4.76972511	     18.68679411	     89.52618482	     12.60506215	    -10.33447076	     -3.13550449	     16.85453785	     88.97876764
      0.10000000	      7.22192371	     -2.55098147	    181.77084036	      0.56967493	      0.84737494	      0.76231591	     38.60948404	    -10.50820705	     -2.56122671	     53.27751701	      0.92986809	     -6.96963359	    -11.87215237	     -8.31022840	     12.72781011	      6.42379469	      1.60842343	     16.31295433	      0.28471476	     -1.66802334	     -6.26977892	     -8.31022840	     -1.44640866	     -2.58092357	     -7.10933213	      4.51561876	     -9.43231414	     -4.40371411	     16.56957468	     88.12465349	     12.85875701	    -11.42337112	     -2.69926808	     17.04208223	     88.75990276
      0.11666670	      7.72538431	     -3.01276030	    182.11015807	      0.57015345	      0.84875423	      0.76174383	     38.33574611	    -10.84741280	     -3.38402484	     46.51311074	      0.81180693	     -6.98696329	    -10.70250026	     -8.21079697	     11.94721788	      6.97840350	      2.11939359	     16.33109602	      0.28503140	     -1.19408915	     -6.71190565	     -8.21079697	     -0.87806549	     -3.37348617	     -8.84461838	      3.35364270	     -8.83510931	     -3.24164306	     15.41913114	     89.10784449	     13.03178253	    -12.50216628	     -2.54713301	     17.04414702	     92.96021565
      0.13333330	      8.33909324	     -3.25018197	    182.41434360	      0.57351145	      0.84852857	      0.76189484	     37.78212697	    -10.57130847	     -4.08995543	     39.61971892	      0.69149454	     -6.79149090	     -7.98185875	     -8.17676106	     11.43752815	      7.25205543	      2.70534186	     16.16751279	      0.28217633	     -1.00353615	     -7.11769569	     -8.17676106	     -0.19219233	     -3.82729361	    -10.30445528	      2.35421756	     -8.28976408	     -3.46605165	     14.40365887	     89.05871493	     13.30099271	    -13.34930444	     -2.65674358	     16.98822781	     93.44868661
      0.15000000	      8.99854521	     -3.53737169	    182.87252417	      0.57872913	      0.84628391	      0.76259390	     37.00682166	    -10.01487834	     -4.28306868	     32.52731194	      0.56770869	     -7.10527802	     -4.67813460	     -8.16116659	     11.36391642	      7.53268307	      2.94902191	     16.50910170	      0.28813818	     -0.71538301	     -7.37877138	     -8.16116659	      0.35198140	     -4.29470781	    -11.41302377	      1.11979461	     -7.83643912	     -3.56757812	     13.83388620	     88.96976666	     13.90934652	    -14.26106206	     -2.62547061	     17.30579789	     93.59053148
      0.16666670	      8.49249983	     -3.77592106	    183.92107809	      0.58537371	      0.84467564	      0.76442697	     34.93187144	     -9.76400805	     -5.11715694	     25.44512755	      0.44410125	     -7.52644589	      0.17510543	     -8.11727087	     10.47049980	      7.84732490	      3.55268983	     17.60915500	      0.30733773	      0.15744182	     -7.40528337	     -8.11727087	     -1.19398352	     -4.43719721	    -13.38979904	      0.94457230	     -7.31738593	     -4.10764220	     12.86709386	     88.85083352	     15.13849825	    -15.65220910	     -2.19810608	     17.93770160	     94.41907868
      0.18333330	      8.88312466	     -4.40384447	    185.03017083	      0.59090139	      0.84232480	      0.76527981	     34.09746132	     -9.84141144	     -5.04669784	     18.77241721	      0.32764049	     -9.11748038	      4.26852274	     -8.09453527	     10.61274498	      8.60596057	      3.85179114	     19.02008600	      0.33196312	      1.43295398	     -7.03463383	     -8.09453527	     -1.68537922	     -4.94840658	    -14.74048791	      0.12316982	     -7.01116596	     -4.50365640	     12.47032196	     88.69129763	     16.37407360	    -16.91671005	     -2.05169261	     18.66135875	     94.67144495
      0.20000000	      8.78698632	     -5.27310284	    186.03836181	      0.59196731	      0.84047345	      0.76375996	     32.70758581	    -10.13463610	     -4.33757061	     12.95310352	      0.22607430	    -10.53542947	      8.25006741	     -8.06005430	      9.78232560	      9.43637685	      3.89876346	     20.09080631	      0.35065072	      3.25185963	     -5.62464613	     -8.06005430	     -2.72113490	     -5.59923486	    -16.14764619	     -0.39566300	     -6.64719300	     -5.36529852	     11.82627999	     88.40197793	     17.37261079	    -18.35085789	     -1.87744783	     19.35670033	     95.02980956
      0.21666670	      9.05957760	     -5.79389961	    186.65363246	      0.58615915	      0.83732690	      0.75991784	     31.71869573	    -10.03610992	     -2.64765511	      8.65594984	      0.15107482	    -10.88682805	     10.62627779	     -8.04093792	      8.89740442	      9.69929199	      3.78071166	     20.94954011	      0.36563845	      5.05618852	     -4.25405376	     -8.04093792	     -2.62017292	     -5.98125360	    -16.90769778	     -1.31010371	     -6.53557628	     -5.92500942	     11.15202581	     88.24245096	     17.71844382	    -19.23571914	     -2.02517673	     19.45788780	     95.15383803
      0.23333330	      8.77191205	     -5.71880939	    186.83985105	      0.57660387	      0.83366803	      0.75530960	     30.14330226	     -9.38413765	     -1.06673252	      6.57444285	      0.11474567	    -10.75626322	     11.64714224	     -8.01708708	      7.34222887	      8.92167450	      3.15186506	     22.06754518	      0.38515132	      7.09465461	     -2.11708401	     -8.01708708	     -2.52120204	     -5.77267204	    -17.34409043	     -2.03809552	     -6.53794547	     -6.68827832	     10.04805797	     88.12631271	     17.60567811	    -19.82833000	     -2.48003793	     19.14756983	     95.32002788
      0.25000000	      8.18770605	     -5.02572635	    186.66868767	      0.56842910	      0.82945908	      0.75217255	     28.44238862	     -8.16145566	     -0.11274013	      6.29802220	      0.10992122	    -11.60825609	     11.27176394	     -7.97188892	      5.79435443	      7.37578276	      2.37802663	     23.72038071	      0.41399874	      8.21758417	     -0.87988641	     -7.97188892	     -2.24589718	     -4.92792676	    -17.22965889	     -2.82736989	     -6.73352237	     -7.67484409	      8.94985368	     86.53048243	     17.21545440	    -19.95177259	     -3.25773413	     18.61692118	     94.24023771
      0.26666670	      7.84710267	     -4.06477219	    186.54004423	      0.56419892	      0.82464805	      0.75063037	     27.60249343	     -6.89611262	      0.02919969	      7.35960573	      0.12844935	    -12.24150791	     10.71574001	     -7.95904559	      5.31088489	      5.76408302	      1.93518674	     26.66763561	      0.46543805	      8.81923578	     -0.91134594	     -7.95904559	     -1.73358561	     -3.77612093	    -16.99111457	     -3.72324416	     -7.17386682	     -7.92240090	      8.39054923	     86.55110328	     16.54442340	    -19.87698675	     -3.43050730	     18.40697784	     94.27287513
